<svg xmlns="http://www.w3.org/2000/svg" fill="none" viewBox="0 0 31 32"><path fill="#000" d="M7 8a.5.5 0 0 1 .5-.5h1.6a.5.5 0 0 1 .6.4l.4 1.7h12.4a.5.5 0 0 1 .5.7l-1.6 8.5a.5.5 0 0 1-.5.5h-9.6a.5.5 0 0 1-.6-.5l-1.6-8.5-.4-1.7H7.5A.5.5 0 0 1 7 8Zm3.3 2.7 1.4 7.5h8.7l1.4-7.5H10.3Zm2 8.6a2.1 2.1 0 1 0 0 4.2 2.1 2.1 0 0 0 0-4.2Zm7.5 0a2.1 2.1 0 1 0 0 4.2 2.1 2.1 0 0 0 0-4.2Zm-7.5 1a1 1 0 1 1 0 2.2 1 1 0 0 1 0-2.2Zm7.5 0a1 1 0 1 1 0 2.2 1 1 0 0 1 0-2.2Z"/><path stroke="#000" d="M30.5 15.8c0 8.4-6.7 15.2-15 15.2S.5 24.2.5 15.8C.5 7.3 7.2.5 15.5.5s15 6.8 15 15.3Z" opacity=".8"/></svg>