<svg xmlns="http://www.w3.org/2000/svg" fill="none" viewBox="0 0 30 30"><circle cx="15" cy="15" r="15" fill="#262626"/><path fill="#fff" d="M20.7 10.8a13.7 13.7 0 0 0-3.1-.8l-.4.7a13 13 0 0 0-3.4 0 6.5 6.5 0 0 0-.4-.7 13.6 13.6 0 0 0-3.1.8A10 10 0 0 0 8 18.3a13.2 13.2 0 0 0 3.8 1.7 7.7 7.7 0 0 0 .7-1.2 8.9 8.9 0 0 1-1.2-.5 6.4 6.4 0 0 0 .3-.2 10 10 0 0 0 7.6 0 6.4 6.4 0 0 0 .3.2 8.3 8.3 0 0 1-1.3.6 8.6 8.6 0 0 0 .9 1.1 13.2 13.2 0 0 0 3.7-1.7 10 10 0 0 0-2.2-7.5Zm-7.7 6c-.7 0-1.3-.6-1.3-1.3a1.3 1.3 0 0 1 2.7 0c0 .7-.6 1.3-1.4 1.3Zm5 0c-.7 0-1.4-.6-1.4-1.3 0-.7.6-1.3 1.4-1.3.8 0 1.4.6 1.3 1.3 0 .7-.5 1.3-1.3 1.3Z"/></svg>