<svg xmlns="http://www.w3.org/2000/svg" fill="none" viewBox="0 0 30 30"><circle cx="15" cy="15" r="15" fill="#fff"/><path fill="#000" fill-rule="evenodd" d="M12.4 7.04c.8-.03 1.06-.04 3.1-.04s2.3 0 3.1.04c.79.04 1.34.17 1.81.35a3.84 3.84 0 0 1 2.2 2.2c.18.47.3 1.02.34 1.82.04.8.05 1.05.05 3.09s0 2.3-.05 3.1a5.5 5.5 0 0 1-.34 1.81 3.84 3.84 0 0 1-2.2 2.2c-.47.18-1.02.3-1.82.34-.8.04-1.05.05-3.09.05s-2.3 0-3.1-.05a5.5 5.5 0 0 1-1.81-.34c-.5-.2-.96-.49-1.33-.87a3.68 3.68 0 0 1-.87-1.33 5.54 5.54 0 0 1-.35-1.82A53 53 0 0 1 8 14.5c0-2.04 0-2.3.04-3.1.04-.79.17-1.34.35-1.81a3.84 3.84 0 0 1 2.2-2.2 5.54 5.54 0 0 1 1.82-.35Zm6.13 1.35c-.79-.03-1.03-.04-3.03-.04-2 0-2.24 0-3.03.04a4.5 4.5 0 0 0-1.4.26 2.46 2.46 0 0 0-1.42 1.43c-.1.26-.22.66-.26 1.39-.03.79-.04 1.03-.04 3.03 0 2 0 2.24.04 3.03.04.73.16 1.13.26 1.4a2.41 2.41 0 0 0 1.43 1.42c.26.1.66.22 1.39.25.79.04 1.03.05 3.03.05 2 0 2.24 0 3.03-.04a4.15 4.15 0 0 0 1.4-.26 2.46 2.46 0 0 0 1.42-1.43c.1-.26.22-.66.25-1.39.04-.79.05-1.03.05-3.03 0-2 0-2.24-.05-3.03a4.15 4.15 0 0 0-.25-1.4c-.14-.34-.3-.6-.56-.86a2.33 2.33 0 0 0-.87-.56c-.26-.1-.66-.22-1.39-.26Zm-3.99 8.42a2.5 2.5 0 1 0 1.92-4.62 2.5 2.5 0 0 0-1.92 4.62Zm-1.77-5.04a3.85 3.85 0 1 1 5.45 5.45 3.85 3.85 0 0 1-5.45-5.45Zm7.44-.55a.91.91 0 1 0-1.25-1.33.91.91 0 0 0 1.25 1.33Z" clip-rule="evenodd"/></svg>